<?xml version="1.0" standalone="no"?>
<!DOCTYPE svg PUBLIC "-//W3C//DTD SVG 20010904//EN"
 "http://www.w3.org/TR/2001/REC-SVG-20010904/DTD/svg10.dtd">
<svg version="1.0" xmlns="http://www.w3.org/2000/svg"
 width="981.000000pt" height="814.000000pt" viewBox="0 0 981.000000 814.000000"
 preserveAspectRatio="xMidYMid meet">

<g transform="translate(0.000000,814.000000) scale(0.100000,-0.100000)"
fill="#000000" stroke="none">
<path d="M1939 8110 c-20 -11 -40 -27 -45 -37 -10 -21 -18 -1060 -9 -1151 10
-91 33 -115 116 -119 52 -3 70 0 97 17 68 42 67 33 67 645 -1 611 0 604 -67
645 -42 25 -111 25 -159 0z"/>
<path d="M3879 8110 c-20 -11 -40 -27 -45 -37 -11 -21 -18 -1059 -9 -1151 5
-45 13 -71 30 -90 21 -25 29 -27 98 -27 66 0 79 3 101 24 47 44 49 70 49 641
-1 593 -1 596 -62 637 -42 29 -111 30 -162 3z"/>
<path d="M5803 8110 c-60 -36 -58 -12 -58 -658 l0 -594 33 -29 c28 -25 40 -29
90 -29 63 0 111 22 134 62 19 34 19 1172 0 1206 -21 36 -72 62 -122 62 -27 0
-58 -8 -77 -20z"/>
<path d="M7745 8114 c-62 -32 -60 -19 -65 -342 -3 -163 -3 -436 0 -605 l5
-309 33 -29 c28 -25 40 -29 90 -29 63 0 111 22 134 62 19 34 19 1172 0 1206
-32 57 -132 80 -197 46z"/>
<path d="M790 7550 c-217 -5 -338 -11 -365 -20 -149 -47 -305 -180 -375 -319
-14 -28 -26 -78 -32 -135 -7 -57 -12 -1292 -15 -3338 l-4 -3246 40 -85 c77
-161 203 -286 361 -360 l85 -39 3365 5 c1938 4 3425 10 3506 16 109 7 150 14
181 29 128 66 1743 1267 2103 1565 52 43 74 70 104 129 l38 76 10 493 c12 659
4 4700 -11 4792 -14 92 -70 196 -146 273 -45 45 -87 74 -172 117 l-111 57
-526 0 c-289 0 -526 -3 -526 -7 0 -5 -5 -153 -10 -330 -13 -442 -28 -504 -154
-620 -256 -237 -655 -133 -757 197 -21 67 -38 355 -39 633 l0 127 -492 -2
-493 -3 -6 -340 c-7 -367 -12 -409 -66 -506 -85 -158 -293 -260 -469 -231
-135 22 -276 119 -337 230 -55 101 -60 139 -66 507 l-6 340 -481 3 -481 2 -6
-151 c-4 -84 -7 -209 -7 -278 0 -69 -5 -171 -10 -226 -13 -128 -47 -202 -134
-290 -147 -146 -339 -182 -522 -96 -77 36 -170 121 -207 189 -54 100 -59 140
-66 507 l-6 340 -492 3 -493 2 0 -177 c-1 -256 -16 -508 -35 -573 -9 -30 -30
-76 -46 -101 -43 -67 -150 -166 -211 -194 -258 -118 -555 23 -634 301 -14 48
-18 123 -23 399 l-6 340 -215 1 c-118 0 -361 -3 -540 -6z m7098 -1777 l1612
-6 0 -1872 0 -1872 -137 -6 c-75 -4 -278 -7 -452 -7 -526 -1 -1106 -17 -1199
-34 -111 -19 -151 -41 -254 -136 -98 -91 -131 -147 -148 -250 -13 -79 -29
-535 -30 -831 0 -119 -3 -271 -7 -337 l-6 -122 -3141 1 c-1728 0 -3240 4
-3361 8 -205 6 -223 8 -268 31 -65 32 -131 98 -163 162 l-27 53 -8 640 c-10
781 -12 4034 -2 4348 l6 227 401 3 c940 6 5701 6 7184 0z m1174 -4060 c120 -3
215 -10 212 -15 -10 -16 -495 -365 -1104 -794 -494 -348 -566 -397 -577 -391
-16 10 -21 237 -12 607 9 453 14 469 162 544 65 33 87 39 173 46 129 9 868 12
1146 3z"/>
<path d="M620 4750 l0 -700 950 0 950 0 0 700 0 700 -950 0 -950 0 0 -700z"/>
<path d="M2850 4750 l0 -700 935 0 935 0 0 700 0 700 -935 0 -935 0 0 -700z"/>
<path d="M5050 4750 l0 -700 950 0 950 0 0 700 0 700 -950 0 -950 0 0 -700z
m1610 0 l0 -410 -660 0 -660 0 0 410 0 410 660 0 660 0 0 -410z"/>
<path d="M7280 4750 l0 -700 950 0 950 0 0 700 0 700 -950 0 -950 0 0 -700z"/>
<path d="M620 3030 l0 -690 950 0 950 0 0 690 0 690 -950 0 -950 0 0 -690z
m1610 0 l0 -400 -660 0 -660 0 0 400 0 400 660 0 660 0 0 -400z"/>
<path d="M2850 3030 l0 -690 935 0 935 0 0 690 0 690 -935 0 -935 0 0 -690z
m1590 0 l0 -400 -650 0 -650 0 0 400 0 400 650 0 650 0 0 -400z"/>
<path d="M5050 3030 l0 -690 950 0 950 0 0 690 0 690 -950 0 -950 0 0 -690z"/>
<path d="M7280 3030 l0 -690 950 0 950 0 0 690 0 690 -950 0 -950 0 0 -690z"/>
<path d="M620 1315 l0 -695 948 2 947 3 0 690 0 690 -947 3 -948 2 0 -695z"/>
<path d="M2850 1315 l0 -695 935 0 935 0 0 695 0 695 -935 0 -935 0 0 -695z"/>
<path d="M5055 1998 c-3 -7 -4 -319 -3 -693 l3 -680 948 -3 947 -2 0 695 0
695 -945 0 c-747 0 -947 -3 -950 -12z"/>
</g>
</svg>
